<?xml version="1.0" encoding="UTF-8"?>
<svg version="1.1" viewBox="0 0 64 64" xmlns="http://www.w3.org/2000/svg">
 <g>
  <path d="m5.0117 15.246-0.0098 0.01172-0.0078 0.01172c-2.7622 3.7137-4.3848 8.0472-4.3848 12.646 0 3.3707 0.78239 6.6691 2.332 9.6875 1.6096 3.2713 4.2969 6.4405 6.5508 8.5312 2.853 2.6471 5.659 4.3412 8.5547 5.9883l0.0078 4e-3c4.1404 2.3453 8.9428 4.117 13.523 5.0684 2e-3 4.1e-4 4e-3 2e-3 6e-3 2e-3 3.9318 0.83487 6.9698 1.0215 10.422 1.0215 3.6655 0 6.3058-0.15712 10.129-0.8125l0.0547-0.01 0.0547-0.0117c2.178-0.43559 4.1893-0.9277 3.9609-0.87696l0.15039-0.0332 0.14649-0.0449c0.16237-0.0494 1.9254-0.48072 3.3066-0.83985l-0.13868 0.0332c0.77256-0.17174 0.91496-0.26744 1.377-0.48047 0.23099-0.10652 0.47244-0.21362 0.87109-0.48828 0.19933-0.13734 0.44406-0.30255 0.80274-0.70508 0.35867-0.40253 1.0449-1.1509 1.0449-2.7246 0-1.6392-1.6458-3.4886-2.6524-3.9023-1.0065-0.4137-1.5881-0.38477-2.1816-0.38477-0.84832 0-0.64262 0.0311-1.1855 0.0547-0.13498 6e-3 -0.44342 6e-3 -0.61133 0.0117 0.0977-0.4146 0.19922-0.82671 0.19922-1.3262 0-1.7344-0.48114-3.7026-1.9024-5.1777-0.63625-0.66041-1.4132-1.079-2.207-1.4023 0.23028-0.39764 0.40222-0.79147 0.50781-1.1289 0.45668-1.4594 0.32032-2.3477 0.32032-2.7871 0-0.5051-0.0724-0.72306-0.10938-1.1094 0.41895-0.0678 0.62455-0.0556 1.1309-0.16993l0.0859-0.0195 0.084-0.0234c1.9706-0.53744 3.0756-1.959 3.6367-2.8672 0.52809-0.85475 0.76533-1.4323 0.81055-1.5312 0.57094-0.85615 2.0049-2.3766 2.5-5.0996l0.0117-0.0742 0.0117-0.0762c0.0204-0.14262 0.13112-0.89626 0.23632-1.6836 0.0799-0.59801 0.13736-1.156 0.18555-1.752 7e-3 -0.0377 0.0116-0.0538 0.0234-0.11914 0.0103-0.0568 0.0209-0.11826 0.0352-0.21094 0.0143-0.0927 0.0547-5e-5 0.0547-0.67968 0-3.3261-1.3361-6.3863-3.459-8.8047-2.1229-2.4184-5.2426-4.2832-8.9258-4.2832-1.1976 0-2.6285 0.10659-4.2949 0.85938-1.6664 0.75279-3.8457 2.975-3.8457 5.6914 0 1.4094 0.29824 3.086 1.5156 4.5469 1.2174 1.4609 3.2611 2.2148 5.0098 2.2148 1.4993 0 2.4753-0.45117 2.998-0.64844 0.52276-0.19727 0.5941-0.13281 0.15234-0.13281-0.22552 0 0.58478 0.1748 1.084 0.29102 0.3636 0.28116 0.5728 0.65839 0.59375 1.0762v0.40235c-0.0605 0.13077-0.10636 0.23594-0.11133 0.25-0.18515 0.32117-0.29042 0.42009-0.89063 0.61914-0.6095 0.20213-1.657 0.32422-2.8359 0.32422-0.12889 0-0.64111-0.0527-1.4062-0.0527-1.6025 0-2.8451 0.96477-3.6641 2.1562-0.97368-4.8574-3.5072-9.0419-7.7051-12.666-3.7904-3.2872-8.8726-4.9138-15.399-4.7394-6.5265 0.17446-12.876 3.5046-16.554 8.3761zm17.982 1.0977c1.7626 0 2.8044 0.23764 4.125 1.2852 1.0519 0.89312 2.9831 4.4076 3.8438 7.459 0.19875 0.83765 0.27149 2.2692 0.27149 3.6094 0 3.2791-0.23987 5.3582-1.3848 7.877l-0.0215 0.0449-0.0195 0.0469c-0.77268 1.8195-1.2561 2.8928-2.75 4.6465l-0.0137 0.0156-0.0137 0.0176c-0.87588 1.0511-3.3408 2.3887-3.541 2.3887-1.511 0-2.1398-0.0721-3.2246-0.66407-2.5197-1.4419-3.6269-2.7041-4.6465-5.2734l-4e-3 -0.012c-0.70347-1.7587-1.0938-4.0428-1.0938-6.041 0-1.5908 0.12988-3.7507 0.2832-5.0606 0.32163-2.3585 0.81776-3.411 1.8086-5.418 1.0473-2.0171 2.0855-3.5839 3.5703-4.3066 8e-4 -3.88e-4 1e-3 -0.0016 2e-3 -2e-3 1.0247-0.4922 1.2369-0.61328 2.8086-0.61328zm21.162 19.361c-0.0309-0.0643-0.0433 0.3856 0.0469 1.2305 0.0554 0.519 0.0973 1.1265 0.55859 2.0801 0.1605 0.33174 0.6162 0.75141 1.0293 1.1504-0.0948 0.084-0.22257 0.10601-0.3125 0.19726-1.3173 1.3366-1.8223 3.1549-1.8223 4.7148 0 0.4346 0.14015 0.85426 0.21484 1.2832-1.7568-0.24409-3.4244-0.58013-5.1289-0.85742 2.7235-2.7319 4.4385-6.1896 5.4141-9.7988z"/>
  <path d="m47.656 27.187c0.05208 0.46875 0.46875 4.0104 0.46875 4.4792v3.3594c0.05208 0.52083-0.13021 2.5781 0.67708 2.5781 1.3021 0 1.25-1.4062 1.25-2.4219 0-1.0417-0.49479-2.1615-0.49479-3.2552 0-0.49479 0-0.85937 0.41667-1.3021 1.5365-0.26042 2.6042-0.26042 4.2187-0.625 1.1458-0.3125 1.5885-1.7708 2.0833-2.6302 0.75521-1.1719 1.7187-2.2917 1.9792-3.724 0.05208-0.36458 0.41667-2.8385 0.44271-3.5677 0 0 0.05208-0.26042 0.05208-0.3125 0-4.3229-3.776-9.0885-8.3854-9.0885-1.5365 0-4.1406 0.49479-4.1406 2.5521 0 1.6146 0.72917 2.7604 2.526 2.7604 1.0937 0 2.0833-0.78125 3.151-0.78125 0.9375 0 2.2656 0.46875 2.9427 0.65104 1.875 1.3281 2.7865 2.9167 2.7865 5.2083 0 0.18229 0 0.625-0.05208 0.625 0 0.15625-0.44271 1.1719-0.625 1.5104-1.4583 2.5521-4.4531 2.9687-7.2135 2.9687-0.44271 0-0.9375-0.05208-1.4062-0.05208-0.33854 0-0.67708 0.3125-0.67708 0.9375v0.13021zm0 17.891c0 1.5365 1.0156 2.9427 2.7083 2.9427 1.0417 0 2.9687-1.0937 2.9687-2.3437 0-2.1354-1.0677-3.2031-3.0469-3.2031-1.7187 0-2.6302 0.98958-2.6302 2.6042zm-24.297-34.401c-7.1615 0.3125-12.266 3.151-15.156 6.9792-2.3437 3.151-3.5937 6.5625-3.5937 10.26 0 2.7865 0.625 5.4167 1.901 7.8906 1.1719 2.3958 3.9062 5.7292 5.7031 7.3958 2.526 2.3437 4.974 3.8281 7.8125 5.4427 3.724 2.1094 8.2292 3.776 12.37 4.6354 3.6719 0.78125 6.276 0.9375 9.6094 0.9375 3.5677 0 5.8073-0.13021 9.4531-0.75521 2.0833-0.41667 3.6458-0.80729 3.8802-0.85938 0.59896-0.18229 2.1615-0.54687 3.4635-0.88542 0.23438-0.05208 0.96354-0.33854 0.96354-0.49479s-0.18229-0.28646-0.83333-0.28646c-0.18229 0-1.3021 0.10417-3.6458 0.10417-3.6458 0-7.6562-0.15625-11.719-0.67708-3.9583-0.54687-7.7865-1.1458-11.667-1.9531-1.1719-0.26042-2.4219-0.49479-3.6458-0.88542-0.13021-0.05208-0.26042-0.13021-0.26042-0.23437 0-0.05208 0.13021-0.13021 0.26042-0.26042 0.80729-0.3125 2.7604-0.98958 3.8021-1.5365 6.1979-3.125 9.0885-10.052 9.0885-16.536 0-6.1198-1.849-10.052-6.7969-14.323-2.7604-2.3958-7.4479-3.9583-11.042-3.9583zm-0.36458 1.6667c2.3437 0 4.5573 0.49479 6.6667 2.1875 2.3437 1.9531 4.1927 5.9896 5.1823 9.5573 0.36458 1.4844 0.39062 3.2031 0.39062 4.6094 0 3.5156-0.3125 6.3802-1.7448 9.5312-0.80729 1.901-1.5885 3.5677-3.3854 5.6771-1.4323 1.7187-4.1406 3.8281-6.6146 3.8281-1.7969 0-3.3854-0.18229-5.1823-1.1719-3.151-1.7969-5.1042-4.0104-6.4062-7.2917-0.9375-2.3437-1.3802-5.0521-1.3802-7.526 0-1.7969 0.13021-4.0365 0.3125-5.5729 0.39062-2.8906 1.1719-4.6094 2.2135-6.7187 1.1198-2.1615 2.6042-4.7396 5.3906-6.0937 1.3021-0.625 2.474-1.0156 4.5573-1.0156z" fill="#fff"/>
 </g>
</svg>
